<mxfile host="app.diagrams.net" modified="2024-02-03T02:27:03.732Z" agent="Mozilla/5.0 (Windows NT 10.0; Win64; x64) AppleWebKit/537.36 (KHTML, like Gecko) Chrome/121.0.0.0 Safari/537.36" version="23.1.1" etag="cECYXJ2zPas5643V2C_Q" type="github">
  <diagram name="第 1 页" id="q3KBPqXG_hUqVRsG9zAz">
    <mxGraphModel>
      <root>
        <mxCell id="0" />
        <mxCell id="1" parent="0" />
      </root>
    </mxGraphModel>
  </diagram>
</mxfile>
